# xmcd
#
# Track frame offsets: 
#        150
#        15072
#        29335
#        42832
#        54340
#        67690
#        81130
#        93375
#        105490
#        117952
#        132252
#        144665
#        155707
#        167130
#        181952
#        195260
#        210415
#        224080
#        237725
#        249595
#        263465
#
# Disc length: 3688 seconds
#
# Revision: 2
# Processed by: cddbd v1.5.2PL0 Copyright (c) Steve Scherf et al.
# Submitted via: ExactAudioCopy v1.0b1
#
DISCID=180e6615
DTITLE=Various Artist - Big Bands Vol. 15 Louis Armstrong
DYEAR=1993
DGENRE=big band
TTITLE0=Louis Armstrong - The Music Goes 'Round And 'Round
TTITLE1=Louis Armstrong - I'm In The Mood For Love
TTITLE2=Louis Armstrong - You Are My Lucky Star
TTITLE3=Louis Armstrong - Something Tells Me
TTITLE4=Louis Armstrong And Band - Ol' Man Mose
TTITLE5=Louis Armstrong - Struttin' With Some Barbecue
TTITLE6=Louis Armstrong - Sunshowers
TTITLE7=Louis Armstrong - Jeepers Creepers
TTITLE8=Louis Armstrong - So Little Time
TTITLE9=Louis Armstrong - True Confession
TTITLE10=Louis Armstrong And Band - When The Saints Go Marching In
TTITLE11=Louis Armstrong - On The Sentimental Side
TTITLE12=Louis Armstrong - Love Walked In
TTITLE13=Louis Armstrong - Confessin'
TTITLE14=Louis Armstrong - I've Got A Pocketful Of Dreams
TTITLE15=Louis Armstrong - Wolverine Blues
TTITLE16=Louis Armstrong - Solitude
TTITLE17=Louis Armstrong - (I'll Be Glad When You're Dead) You Rascal 
TTITLE17=You
TTITLE18=Louis Armstrong - Coquette
TTITLE19=Louis Armstrong - Whatcha Say
TTITLE20=Louis Armstrong And Dorothy Dandridge - On The Sunny Side Of 
TTITLE20=The Street
EXTD=
EXTT0=
EXTT1=
EXTT2=
EXTT3=
EXTT4=
EXTT5=
EXTT6=
EXTT7=
EXTT8=
EXTT9=
EXTT10=
EXTT11=
EXTT12=
EXTT13=
EXTT14=
EXTT15=
EXTT16=
EXTT17=
EXTT18=
EXTT19=
EXTT20=
PLAYORDER=
